<?xml version="1.0" standalone="no"?><svg xmlns="http://www.w3.org/2000/svg" viewBox="0 0 1440 320"><path fill="#0099ff" fill-opacity="1" d="M0,288L24,266.7C48,245,96,203,144,160C192,117,240,75,288,74.7C336,75,384,117,432,122.7C480,128,528,96,576,112C624,128,672,192,720,224C768,256,816,256,864,224C912,192,960,128,1008,112C1056,96,1104,128,1152,133.3C1200,139,1248,117,1296,101.3C1344,85,1392,75,1416,69.3L1440,64L1440,320L1416,320C1392,320,1344,320,1296,320C1248,320,1200,320,1152,320C1104,320,1056,320,1008,320C960,320,912,320,864,320C816,320,768,320,720,320C672,320,624,320,576,320C528,320,480,320,432,320C384,320,336,320,288,320C240,320,192,320,144,320C96,320,48,320,24,320L0,320Z"></path></svg>