<?xml version="1.0" standalone="no"?><svg xmlns="http://www.w3.org/2000/svg" viewBox="0 0 1440 320"><path fill="#0099ff" fill-opacity="1" d="M0,0L26.7,37.3C53.3,75,107,149,160,197.3C213.3,245,267,267,320,277.3C373.3,288,427,288,480,250.7C533.3,213,587,139,640,106.7C693.3,75,747,85,800,101.3C853.3,117,907,139,960,133.3C1013.3,128,1067,96,1120,69.3C1173.3,43,1227,21,1280,10.7C1333.3,0,1387,0,1413,0L1440,0L1440,0L1413.3,0C1386.7,0,1333,0,1280,0C1226.7,0,1173,0,1120,0C1066.7,0,1013,0,960,0C906.7,0,853,0,800,0C746.7,0,693,0,640,0C586.7,0,533,0,480,0C426.7,0,373,0,320,0C266.7,0,213,0,160,0C106.7,0,53,0,27,0L0,0Z"></path></svg>