<?xml version="1.0" standalone="no"?><svg xmlns="http://www.w3.org/2000/svg" viewBox="0 0 1440 320"><path fill="#0099ff" fill-opacity="1" d="M0,64L24,53.3C48,43,96,21,144,16C192,11,240,21,288,69.3C336,117,384,203,432,202.7C480,203,528,117,576,117.3C624,117,672,203,720,224C768,245,816,203,864,160C912,117,960,75,1008,80C1056,85,1104,139,1152,181.3C1200,224,1248,256,1296,277.3C1344,299,1392,309,1416,314.7L1440,320L1440,320L1416,320C1392,320,1344,320,1296,320C1248,320,1200,320,1152,320C1104,320,1056,320,1008,320C960,320,912,320,864,320C816,320,768,320,720,320C672,320,624,320,576,320C528,320,480,320,432,320C384,320,336,320,288,320C240,320,192,320,144,320C96,320,48,320,24,320L0,320Z"></path></svg>